static_grf.mot
version=1
nRows=25
nColumns 19
inDegrees=yes
endheader
time	1_ground_force_vx	1_ground_force_vy	1_ground_force_vz	1_ground_force_px	1_ground_force_py	1_ground_force_pz	1_ground_torque_x	1_ground_torque_y	1_ground_torque_z	2_ground_force_vx	2_ground_force_vy	2_ground_force_vz	2_ground_force_px	2_ground_force_py	2_ground_force_pz	2_ground_torque_x	2_ground_torque_y	2_ground_torque_z
            0.503500	            3.003679	          380.516697	          -34.648930	           -0.316221	            0.006174	           -0.397419	            0.009328	            1.181682	           -0.107601	           -4.798650	          391.385946	           81.364507	           -0.295684	            0.005543	           -0.733085	            0.148477	          -12.110071	           -2.517540
            0.504000	            2.912125	          379.795617	          -34.651795	           -0.316295	            0.006176	           -0.397988	            0.008923	            1.163737	           -0.106177	           -4.893617	          391.753387	           81.506652	           -0.295631	            0.005543	           -0.733077	            0.150979	          -12.086445	           -2.514658
            0.504500	            3.049702	          380.155978	          -34.604730	           -0.316016	            0.006175	           -0.397650	            0.008928	            1.112962	           -0.101310	           -4.891041	          391.017494	           81.316312	           -0.295621	            0.005542	           -0.732984	            0.150902	          -12.063947	           -2.508828
            0.505000	            3.004395	          380.335283	          -34.374568	           -0.316226	            0.006175	           -0.397605	            0.008941	            1.131885	           -0.102299	           -4.706300	          391.754733	           81.318860	           -0.295452	            0.005544	           -0.733284	            0.145233	          -12.089269	           -2.509442
            0.505500	            2.958034	          379.435095	          -34.653454	           -0.316361	            0.006175	           -0.397776	            0.009281	            1.190555	           -0.108732	           -4.704991	          391.386619	           81.270611	           -0.295814	            0.005542	           -0.732996	            0.146083	          -12.151971	           -2.523331
            0.506000	            2.866378	          380.516278	          -34.556877	           -0.315908	            0.006175	           -0.397560	            0.008405	            1.115809	           -0.101333	           -4.844856	          391.201804	           81.316949	           -0.295879	            0.005542	           -0.733035	            0.149489	          -12.070605	           -2.509050
            0.506500	            2.912449	          380.515893	          -34.465279	           -0.316347	            0.006174	           -0.397401	            0.008579	            1.120900	           -0.101526	           -4.843629	          390.834359	           81.080987	           -0.295915	            0.005541	           -0.732988	            0.149323	          -12.048935	           -2.499625
            0.507000	            2.912368	          380.335855	          -34.511904	           -0.316387	            0.006175	           -0.397572	            0.008556	            1.117421	           -0.101395	           -5.031693	          391.017823	           81.081724	           -0.295953	            0.005541	           -0.732972	            0.155816	          -12.108620	           -2.510852
            0.507500	            2.865955	          380.336829	          -34.741074	           -0.316136	            0.006175	           -0.397598	            0.008655	            1.148576	           -0.104914	           -4.986714	          391.569410	           81.365243	           -0.295395	            0.005544	           -0.733167	            0.153574	          -12.058994	           -2.505770
            0.508000	            3.279258	          380.155433	          -34.467735	           -0.316259	            0.006174	           -0.397432	            0.010572	            1.225623	           -0.111124	           -4.704265	          391.201977	           81.410745	           -0.295709	            0.005541	           -0.732805	            0.145561	          -12.104714	           -2.519041
            0.508500	            3.232927	          380.336507	          -34.650272	           -0.316178	            0.006174	           -0.397485	            0.010311	            1.213004	           -0.110510	           -4.889629	          390.648482	           81.502710	           -0.295804	            0.005541	           -0.732839	            0.152154	          -12.156093	           -2.536179
            0.509000	            3.279112	          380.335926	          -34.512814	           -0.316184	            0.006174	           -0.397470	            0.010099	            1.171344	           -0.106291	           -4.894302	          391.937695	           81.460374	           -0.295564	            0.005544	           -0.733268	            0.150833	          -12.078780	           -2.510455
            0.509500	            3.004119	          379.975341	          -34.513678	           -0.316356	            0.006175	           -0.397608	            0.008857	            1.120241	           -0.101753	           -4.800705	          391.938871	           81.225701	           -0.295649	            0.005543	           -0.733179	            0.148655	          -12.136489	           -2.515175
            0.510000	            3.095626	          380.336087	          -34.558219	           -0.316000	            0.006174	           -0.397377	            0.009747	            1.197495	           -0.108807	           -4.800000	          391.754395	           81.318900	           -0.295554	            0.005544	           -0.733276	            0.147993	          -12.078518	           -2.507213
            0.510500	            3.050142	          379.614622	          -34.469485	           -0.316471	            0.006175	           -0.397688	            0.009281	            1.155117	           -0.104886	           -4.939864	          391.569580	           81.365223	           -0.295670	            0.005543	           -0.733074	            0.152463	          -12.085338	           -2.511243
            0.511000	            2.867256	          380.695001	          -34.189257	           -0.316207	            0.006174	           -0.397401	            0.008740	            1.160471	           -0.104219	           -4.986611	          391.568574	           81.599892	           -0.295508	            0.005544	           -0.733214	            0.153877	          -12.083020	           -2.518009
            0.511500	            2.912008	          381.057311	          -34.600524	           -0.316089	            0.006173	           -0.397116	            0.008292	            1.085118	           -0.098530	           -4.892247	          391.384771	           81.599195	           -0.295571	            0.005543	           -0.732982	            0.151324	          -12.106093	           -2.523980
            0.512000	            3.049636	          380.516510	          -34.603185	           -0.316127	            0.006174	           -0.397366	            0.009167	            1.143847	           -0.104018	           -4.892370	          391.385775	           81.317626	           -0.295550	            0.005543	           -0.733030	            0.151205	          -12.096270	           -2.513224
            0.512500	            2.957854	          379.795823	          -34.697761	           -0.316228	            0.006175	           -0.397745	            0.009407	            1.207931	           -0.110355	           -4.986091	          391.385605	           81.270730	           -0.295611	            0.005543	           -0.733167	            0.153891	          -12.079749	           -2.508345
            0.513000	            2.911604	          380.156935	          -34.833672	           -0.316354	            0.006174	           -0.397477	            0.009176	            1.198059	           -0.109778	           -4.705676	          391.570928	           81.224347	           -0.295590	            0.005543	           -0.733045	            0.145106	          -12.074667	           -2.504673
            0.513500	            2.865842	          380.337026	          -34.786926	           -0.316027	            0.006174	           -0.397405	            0.008928	            1.184828	           -0.108368	           -4.985364	          391.200962	           81.410865	           -0.295663	            0.005542	           -0.732975	            0.154220	          -12.101588	           -2.518401
            0.514000	            3.049654	          379.795644	          -34.652136	           -0.316078	            0.006175	           -0.397641	            0.009431	            1.174471	           -0.107157	           -4.799897	          391.753558	           81.553533	           -0.295565	            0.005544	           -0.733324	            0.148416	          -12.113300	           -2.521694
            0.514500	            2.591401	          380.696324	          -34.509562	           -0.316002	            0.006174	           -0.397441	            0.007512	            1.103564	           -0.100036	           -4.752526	          391.570758	           81.224367	           -0.295532	            0.005543	           -0.733185	            0.146787	          -12.094116	           -2.508709
            0.515000	            2.683054	          380.876577	          -34.509017	           -0.315994	            0.006173	           -0.397224	            0.007990	            1.134250	           -0.102768	           -4.985303	          391.200460	           81.551642	           -0.295745	            0.005541	           -0.732735	            0.154284	          -12.106783	           -2.523842
            0.515500	            2.637163	          380.516233	          -34.556308	           -0.316375	            0.006172	           -0.397018	            0.007805	            1.126245	           -0.102279	           -4.893658	          391.753722	           81.412796	           -0.295585	            0.005544	           -0.733269	            0.151104	          -12.096407	           -2.513830
